<svg width="32" height="32" viewBox="0 0 32 32" fill="none" xmlns="http://www.w3.org/2000/svg">
<path d="M0 10C0 4.47715 4.47715 0 10 0H22C27.5228 0 32 4.47715 32 10V22C32 27.5228 27.5228 32 22 32H10C4.47715 32 0 27.5228 0 22V10Z" fill="#E0E7FF"/>
<path d="M20.4878 7.21948C19.5985 11.7643 18.2044 16.1868 16.9512 20.6402L11.9024 17.6768V14.1646L13.4634 15.4146L20.4878 7.21948ZM22.8293 8.97558L18.3415 19.7073L24 24.7805L17.2988 20.8476L19.9756 11.3231L22.8293 8.97558ZM11.5122 13.8536V16.1768L8 15.8048L11.5122 13.8536Z" fill="#312E81"/>
<path d="M20.4878 7.21948C19.5985 11.7643 18.2044 16.1868 16.9512 20.6402L11.9024 17.6768V14.1646L13.4634 15.4146L20.4878 7.21948Z" fill="#DB2777"/>
</svg>
